<?xml version="1.0" encoding="utf-8"?>
<!-- Generator: Adobe Illustrator 22.0.0, SVG Export Plug-In . SVG Version: 6.00 Build 0)  -->
<svg version="1.1" id="Capa_1" xmlns="http://www.w3.org/2000/svg" xmlns:xlink="http://www.w3.org/1999/xlink" x="0px" y="0px"
	 viewBox="0 0 230 62" style="enable-background:new 0 0 230 62;" xml:space="preserve">
<style type="text/css">
	.st0{fill:url(#SVGID_1_);stroke:#DBB763;stroke-width:2.000000e-02;stroke-miterlimit:22.93;}
	.st1{fill:url(#SVGID_2_);stroke:#DBB763;stroke-width:2.000000e-02;stroke-miterlimit:22.93;}
	.st2{fill:#C19236;}
	.st3{fill:#24488B;}
	.st4{fill:#E8AD30;}
	.st5{fill:url(#SVGID_3_);stroke:#DBB763;stroke-width:2.000000e-02;stroke-miterlimit:22.93;}
</style>
<title>b-logo-home</title>
<g id="puesta_en_escena">
	
		<linearGradient id="SVGID_1_" gradientUnits="userSpaceOnUse" x1="92.1803" y1="28.28" x2="92.1803" y2="35.06" gradientTransform="matrix(1 0 0 -1 0 64)">
		<stop  offset="0.14" style="stop-color:#E8AD30"/>
		<stop  offset="0.29" style="stop-color:#ECB941"/>
		<stop  offset="0.53" style="stop-color:#F1C856"/>
		<stop  offset="0.77" style="stop-color:#F4D163"/>
		<stop  offset="1" style="stop-color:#F5D467"/>
	</linearGradient>
	<path class="st0" d="M84.5,29.6c-0.2,0.3-0.1,0.6,0.1,0.9c2,0.8,4.1-0.1,6.2,0.4l0.3,3.5l0.1,5.4l8.8-1.5l-3-3.7L95,32.4
		c0.3-0.7,4.2-6.3,5-7.4C95.8,24.8,86.1,27,84.5,29.6z"/>
	
		<linearGradient id="SVGID_2_" gradientUnits="userSpaceOnUse" x1="34.1419" y1="28.24" x2="34.1419" y2="35.04" gradientTransform="matrix(1 0 0 -1 0 64)">
		<stop  offset="0.14" style="stop-color:#E8AD30"/>
		<stop  offset="0.29" style="stop-color:#ECB941"/>
		<stop  offset="0.53" style="stop-color:#F1C856"/>
		<stop  offset="0.77" style="stop-color:#F4D163"/>
		<stop  offset="1" style="stop-color:#F5D467"/>
	</linearGradient>
	<path class="st1" d="M30,34.2l-3.4,4.1l8.6,1.3v-5.4l0-2.5c0.2-1.4,2.4-1,3.6-1c0.7,0,1.3,0,2,0c1.2-0.1,1.2,0,1.1-1
		c-1.8-2.4-7.8-3.7-11-4.3c-0.7-0.1-1.4-0.2-2.2-0.3C28.1,25,27.5,25,26.9,25c-0.5,0.1-0.3-0.1-0.5,0.3c0.6,0.3,4.7,6.7,5,7.1
		L30,34.2z"/>
	<path class="st2" d="M84.1,34.4c1.4-0.3,5.2-1.8,6.7-2.4v7.8c0.1,0,0.2-0.1,0.3-0.1v-8.3c0-1.8-4.4-0.1-6.6-0.9
		c-0.2-0.2-0.2-0.5-0.1-0.9c-0.2,0.2-0.3,0.5-0.3,0.9L84.1,34.4z"/>
	<path class="st2" d="M42.1,34.4C40.8,34,37,32.5,35.5,32v7.8c-0.1,0-0.2-0.1-0.3-0.1v-8.3c0-1.8,4.4-0.1,6.5-0.9
		c0.2-0.2,0.2-0.5,0.1-0.9c0.2,0.2,0.3,0.5,0.3,0.9L42.1,34.4z"/>
	<path class="st3" d="M86.9,11L75.6,2.6l-0.5-0.4l-0.4,0.4l0,0c-0.2,0.2-4.1,3.9-11.3,3.9h-0.1c-2.9,0-5.9-0.7-8.5-2
		c-0.8-0.4-1.5-0.9-2.2-1.4C52.3,3,52.2,2.9,52,2.8l-0.1-0.1l0,0l0,0l-0.4-0.4L51,2.6l-11.4,8.3l-0.3,0.2v0.6
		c0,17.8,5.8,29.6,11.7,36.9s11.7,10.2,11.8,10.3l0.3,0.2l0.3-0.2c0.1,0,6-2.9,11.9-10.2s11.8-19.2,11.8-37v-0.4L86.9,11z"/>
	<path class="st4" d="M87.9,9.7L76.6,1.3l-1.7-1.2l-1.5,1.4l0,0C73.3,1.6,69.8,5,63.3,5h-0.1c-6.5,0-10-3.4-10.2-3.5l0,0L51.6,0
		L50,1.2L38.6,9.5l-1,0.7v1.2C37.5,48,61,59.9,62,60.4l0.5,0.2l0.6,0.3l0.6-0.3l0.5-0.2c1-0.5,24.6-12.3,24.6-48.8v-1.2L87.9,9.7z
		 M63.1,58.2c0,0-23.2-11.3-23.1-46.7l11.4-8.3c0,0,4.1,4.2,11.8,4.2h0.1c7.7,0,11.9-4.2,11.9-4.2l11.3,8.4
		C86.4,47,63.1,58.2,63.1,58.2z"/>
	<polygon class="st4" points="63.1,46.8 63.5,47.8 64.6,47.8 63.7,48.5 64,49.5 63.1,48.9 62.2,49.5 62.5,48.5 61.7,47.8 62.8,47.8 
			"/>
	<polygon class="st4" points="68.6,47.4 68.9,48.4 70,48.5 69.2,49.1 69.5,50.2 68.6,49.5 67.7,50.2 68,49.1 67.2,48.5 68.2,48.4 	
		"/>
	<polygon class="st4" points="57.7,47.4 58,48.4 59.1,48.5 58.3,49.1 58.6,50.2 57.7,49.5 56.8,50.2 57.1,49.1 56.3,48.5 57.3,48.4 
			"/>
	<polygon class="st4" points="60.5,49.9 60.8,50.9 61.9,51 61.1,51.6 61.4,52.7 60.5,52 59.6,52.7 59.9,51.6 59,51 60.1,50.9 	"/>
	<polygon class="st4" points="65.4,49.9 65.8,50.9 66.9,51 66,51.6 66.3,52.7 65.4,52 64.5,52.7 64.8,51.6 64,51 65.1,50.9 	"/>
	<polygon class="st4" points="63.1,52.5 63.5,53.6 64.6,53.6 63.7,54.2 64,55.3 63.1,54.7 62.2,55.3 62.5,54.2 61.7,53.6 62.8,53.6 
			"/>
	<polygon class="st4" points="63.1,41.2 63.5,42.2 64.6,42.2 63.7,42.9 64,44 63.1,43.3 62.2,44 62.6,42.9 61.7,42.2 62.8,42.2 	"/>
	<polygon class="st4" points="58,41.5 58.3,42.5 59.4,42.5 58.5,43.2 58.8,44.2 58,43.6 57.1,44.2 57.4,43.2 56.5,42.5 57.6,42.5 	
		"/>
	<polygon class="st4" points="68.3,41.5 68.6,42.5 69.7,42.5 68.8,43.2 69.2,44.2 68.3,43.6 67.4,44.2 67.7,43.2 66.8,42.5 
		67.9,42.5 	"/>
	<polygon class="st4" points="52.8,41.8 53.2,42.8 54.3,42.8 53.4,43.5 53.7,44.5 52.8,43.9 51.9,44.5 52.3,43.5 51.4,42.8 
		52.5,42.8 	"/>
	<polygon class="st4" points="73.4,41.8 73.8,42.8 74.9,42.8 74,43.5 74.3,44.5 73.4,43.9 72.5,44.5 72.8,43.5 72,42.8 73.1,42.8 	
		"/>
	<polygon class="st4" points="55,44.9 55.4,45.9 56.5,45.9 55.6,46.6 55.9,47.7 55,47 54.1,47.6 54.4,46.6 53.6,45.9 54.7,45.9 	"/>
	<polygon class="st4" points="71.3,44.9 71.7,45.9 72.7,46 71.9,46.6 72.2,47.7 71.3,47 70.4,47.6 70.7,46.6 69.8,45.9 70.9,45.9 	
		"/>
	<polygon class="st4" points="65.9,44.2 66.2,45.2 67.3,45.3 66.4,45.9 66.8,47 65.9,46.3 65,46.9 65.3,45.9 64.4,45.2 65.5,45.2 	
		"/>
	<polygon class="st4" points="60.4,44.2 60.8,45.2 61.9,45.2 61,45.9 61.3,47 60.4,46.3 59.5,47 59.9,45.9 59,45.2 60.1,45.2 	"/>
	<polygon class="st4" points="55.7,38.7 56.1,39.7 57.2,39.7 56.3,40.4 56.6,41.4 55.7,40.8 54.8,41.4 55.1,40.4 54.3,39.7 
		55.3,39.7 	"/>
	<polygon class="st4" points="70.6,38.7 70.9,39.7 72,39.7 71.2,40.4 71.5,41.4 70.6,40.8 69.7,41.4 70,40.4 69.2,39.7 70.2,39.7 	
		"/>
	<polygon class="st4" points="50.7,39 51.1,40 52.2,40 51.3,40.7 51.6,41.7 50.7,41.1 49.8,41.7 50.2,40.7 49.3,40 50.4,40 	"/>
	<polygon class="st4" points="75.6,39 75.9,40 77,40 76.1,40.7 76.4,41.7 75.6,41.1 74.7,41.7 75,40.7 74.1,40 75.2,40 	"/>
	<polygon class="st4" points="60.7,38.1 61,39.1 62.1,39.2 61.2,39.8 61.5,40.9 60.7,40.2 59.8,40.9 60.1,39.8 59.2,39.2 60.3,39.1 
			"/>
	<polygon class="st4" points="65.6,38.1 66,39.1 67.1,39.2 66.2,39.8 66.5,40.9 65.6,40.2 64.7,40.9 65.1,39.8 64.2,39.2 65.3,39.1 
			"/>
	<polygon class="st4" points="77.6,35.6 78,36.6 79,36.7 78.2,37.3 78.5,38.4 77.6,37.7 76.7,38.4 77,37.3 76.2,36.6 77.2,36.6 	"/>
	<polygon class="st4" points="48.7,35.6 49,36.6 50.1,36.7 49.2,37.3 49.5,38.4 48.7,37.7 47.8,38.4 48.1,37.3 47.2,36.6 48.3,36.6 
			"/>
	<polygon class="st4" points="72.8,35.6 73.1,36.6 74.2,36.7 73.3,37.3 73.7,38.4 72.8,37.7 71.9,38.4 72.2,37.3 71.3,36.7 
		72.4,36.6 	"/>
	<polygon class="st4" points="53.5,35.6 53.8,36.6 54.9,36.7 54.1,37.3 54.4,38.4 53.5,37.7 52.6,38.3 52.9,37.3 52,36.7 53.1,36.6 
			"/>
	<polygon class="st4" points="58.3,35.3 58.7,36.3 59.8,36.4 58.9,37 59.2,38.1 58.3,37.5 57.4,38.1 57.7,37 56.9,36.4 58,36.3 	"/>
	<polygon class="st4" points="68,35.3 68.3,36.3 69.4,36.4 68.5,37 68.8,38.1 67.9,37.5 67.1,38.1 67.4,37 66.5,36.4 67.6,36.3 	"/>
	<polygon class="st4" points="63.1,35 63.5,36.1 64.6,36.1 63.7,36.8 64,37.8 63.1,37.2 62.2,37.8 62.5,36.8 61.7,36.1 62.8,36.1 	
		"/>
	<polygon class="st4" points="74.9,32.2 75.2,33.2 76.3,33.2 75.4,33.9 75.7,34.9 74.9,34.3 74,34.9 74.3,33.9 73.4,33.2 74.5,33.2 
			"/>
	<polygon class="st4" points="79,32.2 79.3,33.2 80.4,33.2 79.6,33.9 79.9,34.9 79,34.3 78.1,34.9 78.4,33.9 77.6,33.2 78.6,33.2 	
		"/>
	<polygon class="st4" points="47.3,32.2 47.7,33.2 48.7,33.2 47.9,33.9 48.2,34.9 47.3,34.3 46.4,34.9 46.7,33.9 45.8,33.2 
		46.9,33.2 	"/>
	<polygon class="st4" points="70.2,32.2 70.5,33.2 71.6,33.2 70.8,33.9 71.1,34.9 70.2,34.3 69.3,34.9 69.6,33.9 68.7,33.2 
		69.8,33.2 	"/>
	<polygon class="st4" points="51.4,32.2 51.8,33.2 52.9,33.2 52,33.9 52.3,34.9 51.4,34.3 50.5,34.9 50.8,33.9 50,33.2 51.1,33.2 	
		"/>
	<polygon class="st4" points="56.1,32.2 56.5,33.2 57.5,33.2 56.7,33.9 57,34.9 56.1,34.3 55.2,34.9 55.5,33.9 54.7,33.2 55.8,33.2 
			"/>
	<polygon class="st4" points="65.5,32.2 65.8,33.2 66.9,33.2 66.1,33.9 66.4,34.9 65.5,34.3 64.6,34.9 64.9,33.9 64.1,33.2 
		65.1,33.2 	"/>
	<polygon class="st4" points="60.8,32.2 61.2,33.2 62.2,33.2 61.4,33.9 61.7,34.9 60.8,34.3 59.9,34.9 60.2,33.9 59.4,33.2 
		60.5,33.2 	"/>
	<polygon class="st4" points="52.1,24.6 49.3,24.6 49.3,23.3 49,22.9 47.5,22.9 47.2,23.3 47.2,28.3 47.5,28.6 49,28.6 49.3,28.3 
		49.3,27 52.1,27 52.1,29.3 50.5,30.9 46,30.9 44.3,29.3 44.4,22.2 46,20.6 50.5,20.6 52.1,22.3 	"/>
	<path class="st4" d="M61.2,20.6v2.3h-0.5l2.2,5.7h0.6V31h-3.9v-2.4H60l-0.1-0.5h-2.7l-0.2,0.5h0.3v2.3h-3.9v-2.3h0.6l2.3-5.7h-0.4
		v-2.3L61.2,20.6z M57.8,26.2h1.3l-0.7-1.6L57.8,26.2z"/>
	<path class="st4" d="M73.1,26.3v3L71.4,31h-6.3v-2.4h0.6V23h-0.6v-2.3h6.3l1.6,1.6v2.6l-0.7,0.7L73.1,26.3z M70.2,27.1l-0.3-0.3
		h-1.4v1.9h1.4l0.3-0.3L70.2,27.1z M70.2,23.3L69.9,23h-1.4v1.5h1.4l0.3-0.3L70.2,23.3z"/>
	<polygon class="st4" points="81.3,23 81.3,29.4 79.7,31 75.9,31 74.3,29.3 74.3,26.8 77.1,26.8 77.1,28.3 77.4,28.6 78.2,28.7 
		78.5,28.3 78.5,23 77.7,23 77.7,20.7 81.9,20.7 81.9,23 	"/>
	<polygon class="st4" points="58.3,12.9 58.7,14 59.7,14 58.9,14.6 59.2,15.7 58.3,15.1 57.4,15.7 57.7,14.6 56.9,14 58,14 	"/>
	<polygon class="st4" points="53.5,12.7 53.8,13.7 54.9,13.7 54,14.4 54.4,15.4 53.5,14.8 52.6,15.4 52.9,14.4 52,13.7 53.1,13.7 	
		"/>
	<polygon class="st4" points="43.8,12.7 44.2,13.7 45.3,13.7 44.4,14.4 44.7,15.4 43.8,14.8 43,15.4 43.3,14.4 42.4,13.7 43.5,13.7 
			"/>
	<polygon class="st4" points="48.7,12.7 49,13.7 50.1,13.7 49.3,14.4 49.5,15.4 48.7,14.8 47.8,15.4 48.1,14.4 47.2,13.7 48.3,13.7 
			"/>
	<polygon class="st4" points="51.3,5.9 51.7,7 52.8,7 51.9,7.7 52.2,8.7 51.3,8.1 50.4,8.7 50.8,7.7 49.9,7 51,7 	"/>
	<polygon class="st4" points="46.7,9.2 47.1,10.2 48.2,10.2 47.3,10.9 47.6,11.9 46.7,11.3 45.8,11.9 46.1,10.9 45.3,10.2 
		46.4,10.2 	"/>
	<polygon class="st4" points="60.9,9.7 61.3,10.8 62.4,10.8 61.5,11.4 61.8,12.5 60.9,11.9 60,12.5 60.4,11.4 59.5,10.8 60.6,10.8 	
		"/>
	<polygon class="st4" points="63.1,12.9 63.5,14 64.6,14 63.7,14.6 64,15.7 63.1,15.1 62.2,15.7 62.5,14.6 61.7,14 62.8,14 	"/>
	<polygon class="st4" points="65.6,9.7 65.9,10.8 67,10.8 66.2,11.4 66.5,12.5 65.6,11.9 64.7,12.5 65,11.4 64.1,10.8 65.2,10.8 	
		"/>
	<polygon class="st4" points="51.6,9.4 52,10.5 53.1,10.5 52.2,11.2 52.5,12.2 51.6,11.6 50.8,12.2 51.1,11.2 50.2,10.5 51.3,10.5 	
		"/>
	<polygon class="st4" points="56.3,9.4 56.7,10.5 57.7,10.5 56.9,11.2 57.2,12.2 56.3,11.6 55.4,12.2 55.7,11.2 54.8,10.5 
		55.9,10.5 	"/>
	<polygon class="st4" points="67.9,12.9 67.6,14 66.5,14 67.4,14.6 67.1,15.7 67.9,15.1 68.8,15.7 68.5,14.6 69.4,14 68.3,14 	"/>
	<polygon class="st4" points="72.7,12.6 72.4,13.7 71.3,13.7 72.2,14.4 71.9,15.4 72.8,14.8 73.6,15.4 73.3,14.4 74.2,13.7 
		73.1,13.7 	"/>
	<polygon class="st4" points="82.4,12.6 82,13.7 80.9,13.7 81.8,14.4 81.5,15.4 82.4,14.8 83.3,15.4 82.9,14.4 83.8,13.7 82.7,13.7 
			"/>
	<polygon class="st4" points="77.6,12.6 77.2,13.7 76.1,13.7 77,14.4 76.7,15.4 77.6,14.8 78.4,15.4 78.1,14.4 79,13.7 77.9,13.7 	
		"/>
	<polygon class="st4" points="75.2,5.9 74.8,7 73.7,7 74.6,7.7 74.3,8.7 75.2,8.1 76.1,8.7 75.8,7.6 76.6,7 75.5,7 	"/>
	<polygon class="st4" points="79.8,9.2 79.4,10.2 78.4,10.2 79.2,10.9 78.9,11.9 79.8,11.3 80.7,11.9 80.4,10.9 81.2,10.2 
		80.2,10.2 	"/>
	<polygon class="st4" points="70.2,9.4 69.9,10.5 68.8,10.5 69.7,11.2 69.3,12.2 70.2,11.6 71.1,12.2 70.8,11.2 71.7,10.5 
		70.6,10.5 	"/>
	<polygon class="st4" points="74.9,9.4 74.5,10.5 73.4,10.5 74.3,11.2 74,12.2 74.9,11.6 75.8,12.2 75.4,11.2 76.3,10.5 75.2,10.5 	
		"/>
	<polygon class="st4" points="56.7,16.3 57.1,17.4 58.2,17.4 57.3,18 57.6,19.1 56.7,18.5 55.8,19.1 56.2,18 55.3,17.4 56.4,17.4 	
		"/>
	<polygon class="st4" points="52.5,16.3 52.8,17.4 53.9,17.4 53,18 53.3,19.1 52.5,18.5 51.6,19.1 51.9,18 51,17.4 52.1,17.4 	"/>
	<polygon class="st4" points="48.2,16.3 48.6,17.4 49.6,17.4 48.8,18 49.1,19.1 48.2,18.5 47.3,19.1 47.6,18 46.8,17.4 47.8,17.4 	
		"/>
	<polygon class="st4" points="44,16.3 44.3,17.4 45.4,17.4 44.5,18 44.8,19.1 44,18.5 43.1,19.1 43.4,18 42.5,17.4 43.6,17.4 	"/>
	<polygon class="st4" points="61,16.3 61.3,17.4 62.4,17.4 61.6,18 61.9,19.1 61,18.5 60.1,19.1 60.4,18 59.5,17.4 60.6,17.4 	"/>
	<polygon class="st4" points="65.3,16.3 65.6,17.4 66.7,17.4 65.8,18 66.1,19.1 65.2,18.5 64.4,19.1 64.7,18 63.8,17.4 64.9,17.4 	
		"/>
	<polygon class="st4" points="73.8,16.3 73.4,17.4 72.3,17.4 73.2,18 72.9,19.1 73.8,18.5 74.7,19.1 74.3,18 75.2,17.4 74.1,17.3 	
		"/>
	<polygon class="st4" points="78,16.3 77.7,17.4 76.6,17.4 77.4,18 77.1,19.1 78,18.5 78.9,19.1 78.6,18 79.5,17.4 78.4,17.4 	"/>
	<polygon class="st4" points="82.3,16.3 81.9,17.4 80.8,17.4 81.7,18 81.4,19.1 82.3,18.5 83.2,19.1 82.9,18 83.7,17.4 82.6,17.4 	
		"/>
	<polygon class="st4" points="69.5,16.3 69.1,17.4 68.1,17.4 68.9,18 68.6,19.1 69.5,18.5 70.4,19.1 70.1,18 70.9,17.4 69.9,17.4 	
		"/>
	
		<linearGradient id="SVGID_3_" gradientUnits="userSpaceOnUse" x1="63.21" y1="12.8459" x2="63.21" y2="32" gradientTransform="matrix(1 0 0 -1 0 64)">
		<stop  offset="0.29" style="stop-color:#E8AD30"/>
		<stop  offset="0.64" style="stop-color:#EFC24E"/>
		<stop  offset="1" style="stop-color:#F5D467"/>
	</linearGradient>
	<path class="st5" d="M35.4,44.7c0.3,1.7,12.2,4.6,13.5,4.9c12.1,2.8,27.8,1.8,39.1-3.2c3.5-1.5,2.8-0.3,3-6.6L90.8,32
		c-1.5,0.6-5.1,2-6.4,2.4c-0.7,0-3.7,1-4.6,1.3c-12.4,3-25.8,2.9-37.7-1.4c-3.6-1.1-4.8-1.7-6.5-2.3L35.4,44.7z"/>
	<path class="st3" d="M49,44.1c0-0.6-0.2-1.1-0.5-1.6c-0.1-0.2-0.3-0.3-0.5-0.5l-0.5-0.4c-0.1-0.1-0.3-0.2-0.4-0.4
		C47,41.1,47,40.9,47,40.8c0-0.2,0-0.3,0.2-0.5c0.2-0.1,0.4-0.1,0.5-0.1c0.2,0,0.3,0.1,0.5,0.2c0.2,0.1,0.3,0.2,0.4,0.2l0.1-1.4
		c-0.2-0.1-0.3-0.2-0.5-0.2l-0.4-0.1c-0.3-0.1-0.6-0.1-0.8,0c-0.2,0-0.5,0.1-0.6,0.3c-0.2,0.2-0.3,0.4-0.4,0.6
		c-0.1,0.3-0.1,0.6-0.1,0.9c0,0.3,0,0.7,0.2,1c0.1,0.2,0.2,0.5,0.4,0.7c0.1,0.2,0.3,0.3,0.5,0.5l0.5,0.4c0.1,0.1,0.3,0.2,0.4,0.4
		c0.1,0.1,0.2,0.3,0.2,0.5c0,0.2-0.1,0.4-0.2,0.5c-0.2,0.1-0.4,0.1-0.5,0.1c-0.2,0-0.4-0.1-0.6-0.2c-0.2-0.1-0.3-0.2-0.5-0.3
		l-0.1,1.5c0.2,0.1,0.3,0.2,0.5,0.2c0.2,0.1,0.4,0.1,0.5,0.2c0.3,0.1,0.6,0.1,0.9,0c0.2,0,0.5-0.2,0.7-0.3c0.2-0.2,0.3-0.4,0.4-0.7
		C49,44.7,49,44.4,49,44.1z"/>
	<path class="st3" d="M54.3,43.6c0-0.5-0.1-1.1-0.2-1.6c-0.1-0.4-0.3-0.8-0.5-1.2c-0.2-0.3-0.4-0.5-0.7-0.7
		c-0.3-0.2-0.6-0.3-0.9-0.3c-0.3-0.1-0.7,0-1,0.1c-0.3,0.1-0.6,0.3-0.8,0.6c-0.2,0.3-0.4,0.7-0.5,1.1c-0.1,0.5-0.2,1-0.2,1.5
		c0,0.5,0,1,0.1,1.5c0.1,0.4,0.2,0.8,0.5,1.1c0.2,0.3,0.4,0.6,0.7,0.8c0.3,0.2,0.6,0.3,1,0.4c0.3,0.1,0.7,0,1-0.1
		c0.3-0.1,0.6-0.3,0.8-0.6c0.2-0.3,0.4-0.7,0.5-1.1C54.2,44.6,54.3,44.1,54.3,43.6L54.3,43.6z M53,43.5c0,0.3,0,0.7-0.1,1
		c-0.1,0.2-0.2,0.4-0.3,0.6c-0.1,0.1-0.2,0.2-0.4,0.3c-0.1,0.1-0.3,0.1-0.4,0c-0.4-0.1-0.7-0.3-0.9-0.7c-0.2-0.5-0.3-1.1-0.3-1.6
		c0-0.3,0-0.6,0.1-0.9c0.1-0.2,0.1-0.4,0.3-0.6c0.1-0.1,0.2-0.3,0.4-0.3c0.1-0.1,0.3-0.1,0.4-0.1c0.4,0.1,0.7,0.3,0.9,0.7
		C52.9,42.4,53,42.9,53,43.5z"/>
	<path class="st3" d="M58.9,40.7l-1.2-0.1l-0.5,1.6l-0.2,0.6c-0.1,0.2-0.1,0.4-0.2,0.6l0,0c-0.1-0.3-0.2-0.7-0.3-1.1l-0.6-1.8
		l-1.3-0.1l1.6,4.7v2.4l1.2,0.1V45L58.9,40.7z"/>
	<path class="st3" d="M64.1,45.5c0-0.3,0-0.6-0.2-0.9c-0.1-0.2-0.2-0.4-0.4-0.6c-0.1-0.1-0.3-0.3-0.5-0.4l-0.5-0.3
		c-0.1-0.1-0.3-0.2-0.4-0.3c-0.1-0.1-0.2-0.3-0.2-0.4c0-0.2,0.1-0.4,0.2-0.5c0.1-0.1,0.3-0.2,0.5-0.2c0.2,0,0.3,0,0.5,0.1
		c0.2,0,0.3,0.1,0.5,0.1l0.1-1.4c-0.2,0-0.3-0.1-0.5-0.1h-0.5c-0.3,0-0.6,0-0.9,0.1c-0.2,0.1-0.5,0.2-0.6,0.4
		c-0.2,0.2-0.3,0.4-0.4,0.7c-0.1,0.3-0.1,0.6-0.1,0.9c0,0.3,0,0.6,0.2,1c0.1,0.2,0.2,0.4,0.4,0.6c0.1,0.1,0.3,0.3,0.5,0.4l0.5,0.3
		c0.1,0.1,0.3,0.2,0.4,0.3c0.1,0.1,0.2,0.3,0.2,0.5c0,0.2-0.1,0.4-0.2,0.5c-0.1,0.1-0.3,0.2-0.5,0.2c-0.4,0-0.7-0.1-1-0.3l-0.1,1.5
		c0.2,0.1,0.3,0.1,0.5,0.1c0.2,0,0.4,0,0.5,0c0.3,0,0.6,0,0.9-0.2c0.3-0.1,0.5-0.3,0.7-0.5c0.2-0.2,0.3-0.5,0.4-0.7
		C64,46.1,64.1,45.8,64.1,45.5z"/>
	<path class="st3" d="M69.4,43.9c0-0.5-0.1-1.1-0.2-1.6c-0.1-0.4-0.3-0.7-0.5-1.1c-0.2-0.3-0.4-0.5-0.7-0.6
		c-0.6-0.3-1.3-0.2-1.9,0.2c-0.3,0.2-0.6,0.5-0.8,0.8c-0.2,0.4-0.4,0.8-0.5,1.2c-0.1,0.5-0.2,1-0.2,1.5c0,0.5,0,1,0.1,1.5
		c0.1,0.4,0.2,0.8,0.4,1.1c0.2,0.3,0.4,0.5,0.7,0.7c0.3,0.1,0.7,0.2,1,0.2c0.4,0,0.7-0.1,1-0.3c0.3-0.2,0.6-0.5,0.8-0.8
		c0.2-0.4,0.4-0.8,0.5-1.2C69.3,44.9,69.4,44.4,69.4,43.9L69.4,43.9z M68.2,44.1c0,0.3,0,0.7-0.1,1c-0.1,0.2-0.2,0.5-0.3,0.7
		c-0.1,0.2-0.2,0.3-0.4,0.4c-0.1,0.1-0.3,0.1-0.4,0.1c-0.4,0-0.7-0.2-0.9-0.5c-0.2-0.5-0.3-1-0.3-1.6c0-0.3,0-0.6,0.1-1
		c0.1-0.2,0.1-0.5,0.3-0.7c0.1-0.2,0.2-0.3,0.4-0.4c0.4-0.3,1-0.2,1.3,0.3c0,0,0,0,0,0.1C68.1,43,68.2,43.5,68.2,44.1L68.2,44.1z"/>
	<path class="st3" d="M73.5,46.8l-0.1-1.4c-0.1,0.1-0.3,0.2-0.4,0.2c-0.1,0.1-0.3,0.1-0.4,0.1c-0.4,0.1-0.8-0.1-1-0.4
		c-0.2-0.5-0.4-1-0.3-1.5c0-0.5,0.1-1.1,0.3-1.5c0.2-0.4,0.5-0.6,0.9-0.7c0.2,0,0.3,0,0.5,0c0.2,0,0.3,0,0.4,0.1l0.1-1.5
		c-0.3-0.1-0.7-0.1-1,0c-0.4,0-0.8,0.2-1.1,0.4c-0.3,0.2-0.6,0.5-0.8,0.9c-0.3,0.4-0.5,0.8-0.6,1.2c-0.1,0.5-0.2,1-0.2,1.6
		c0,0.4,0.1,0.8,0.2,1.2c0.1,0.4,0.2,0.7,0.4,1c0.2,0.3,0.4,0.5,0.7,0.7c0.4,0.2,0.8,0.2,1.2,0.2C72.7,47.1,73.1,47,73.5,46.8
		L73.5,46.8z"/>
	<polygon class="st3" points="75.4,46.6 75.4,39.7 74.3,39.9 74.3,46.8 	"/>
	<path class="st3" d="M80.9,42c0-0.5-0.1-1-0.2-1.5c-0.1-0.4-0.3-0.7-0.5-1c-0.2-0.2-0.4-0.4-0.7-0.5c-0.3-0.1-0.6-0.1-0.9,0
		c-0.4,0.1-0.7,0.2-1,0.5c-0.3,0.3-0.6,0.6-0.8,0.9c-0.2,0.4-0.4,0.8-0.5,1.3c-0.1,0.5-0.2,1-0.2,1.6c0,0.5,0,1,0.1,1.4
		c0.1,0.4,0.2,0.7,0.4,1c0.2,0.3,0.4,0.4,0.7,0.5c0.3,0.1,0.7,0.1,1,0c0.4-0.1,0.7-0.2,1-0.5c0.3-0.3,0.6-0.6,0.8-0.9
		c0.2-0.4,0.4-0.8,0.5-1.3C80.8,43,80.9,42.4,80.9,42L80.9,42z M79.7,42.3c0,0.3,0,0.7-0.1,1c-0.1,0.3-0.2,0.5-0.3,0.7
		c-0.1,0.2-0.2,0.3-0.4,0.5c-0.1,0.1-0.3,0.2-0.4,0.2c-0.4,0.1-0.7-0.1-0.9-0.4c-0.2-0.5-0.3-1-0.3-1.5c0-0.3,0-0.7,0.1-1
		c0.1-0.2,0.1-0.5,0.3-0.7c0.1-0.2,0.2-0.3,0.4-0.5c0.1-0.1,0.3-0.2,0.4-0.2c0.3-0.1,0.7,0,0.9,0.3C79.7,41.2,79.8,41.8,79.7,42.3
		L79.7,42.3z"/>
</g>
</svg>
